<svg width="15" height="15" viewBox="0 0 15 15" fill="none" xmlns="http://www.w3.org/2000/svg">
<path d="M11.25 7.48828C11.25 7.69922 11.168 7.875 11.0039 8.01562C10.8633 8.15625 10.6875 8.22656 10.4766 8.22656H2.98828L0 11.25V0.738281C0 0.527344 0.0703125 0.351562 0.210938 0.210938C0.351562 0.0703125 0.527344 0 0.738281 0H10.4766C10.6875 0 10.8633 0.0703125 11.0039 0.210938C11.168 0.351562 11.25 0.527344 11.25 0.738281V7.48828ZM14.2383 2.98828C14.4492 2.98828 14.625 3.05859 14.7656 3.19922C14.9062 3.33984 14.9766 3.51562 14.9766 3.72656V14.9766L11.9883 11.9883H3.72656C3.51562 11.9883 3.33984 11.918 3.19922 11.7773C3.05859 11.6367 2.98828 11.4609 2.98828 11.25V9.73828H12.7266V2.98828H14.2383Z" fill="#8083A3"/>
</svg>
