<svg width="14" height="14" viewBox="0 0 14 14" fill="none" xmlns="http://www.w3.org/2000/svg">
<path d="M12.7617 9.28125C12.9727 9.28125 13.1484 9.35156 13.2891 9.49219C13.4297 9.63281 13.5 9.80859 13.5 10.0195V12.6211C13.5 13.207 13.2539 13.5 12.7617 13.5C9.26953 13.5 6.26953 12.2461 3.76172 9.73828C1.25391 7.23047 0 4.23047 0 0.738281C0 0.246094 0.292969 0 0.878906 0H3.48047C3.69141 0 3.86719 0.0703125 4.00781 0.210938C4.14844 0.351562 4.21875 0.527344 4.21875 0.738281C4.21875 1.65234 4.35938 2.53125 4.64062 3.375C4.73438 3.67969 4.67578 3.9375 4.46484 4.14844L3.02344 5.41406C4.10156 7.66406 5.82422 9.36328 8.19141 10.5117L9.35156 9.03516C9.49219 8.89453 9.66797 8.82422 9.87891 8.82422C9.99609 8.82422 10.0781 8.83594 10.125 8.85938C10.9688 9.14062 11.8477 9.28125 12.7617 9.28125Z" fill="#8083A3"/>
</svg>
