<svg width="14" height="13" viewBox="0 0 14 13" fill="none" xmlns="http://www.w3.org/2000/svg">
<path d="M6.75 4.5L9.73828 7.52344H7.48828V12.0234H6.01172V7.52344H3.76172L6.75 4.5ZM11.9883 0C12.4102 0 12.7617 0.152344 13.043 0.457031C13.3477 0.738281 13.5 1.08984 13.5 1.51172V10.5117C13.5 10.9102 13.3477 11.2617 13.043 11.5664C12.7383 11.8711 12.3867 12.0234 11.9883 12.0234H9V10.5117H11.9883V3.02344H1.51172V10.5117H4.5V12.0234H1.51172C1.08984 12.0234 0.726562 11.8828 0.421875 11.6016C0.140625 11.2969 0 10.9336 0 10.5117V1.51172C0 1.08984 0.140625 0.738281 0.421875 0.457031C0.726562 0.152344 1.08984 0 1.51172 0H11.9883Z" fill="#8083A3"/>
</svg>
